<svg xmlns="http://www.w3.org/2000/svg" viewBox="0 0 256 256" role="img" aria-label="Cyber Executive Intelligence">
  <defs>
    <linearGradient id="shield" x1="0" y1="0" x2="1" y2="1">
      <stop offset="0%" stop-color="#22d3ee" />
      <stop offset="100%" stop-color="#0ea5e9" />
    </linearGradient>
  </defs>
  <rect width="256" height="256" rx="48" fill="#020617" />
  <path d="M128 28l72 26v58c0 53-29 97-72 116-43-19-72-63-72-116V54l72-26z" fill="url(#shield)" />
  <path d="M128 72c30 0 54 24 54 54s-24 54-54 54-54-24-54-54 24-54 54-54zm0 24a30 30 0 100 60 30 30 0 000-60z" fill="#020617" />
  <path d="M128 102l15 10-4 17 14 11-18 1-7 17-7-17-18-1 14-11-4-17z" fill="#22d3ee" />
</svg>
